Coordinates
version=1
nRows=10
nColumns=33
inDegrees=yes

Units are S.I. units (second, meters, Newtons, ...)
Angles are in degrees.

endheader
time	ground_thorax_rot_x	ground_thorax_rot_y	ground_thorax_rot_z	ground_thorax_tx	ground_thorax_ty	ground_thorax_tz	clav_prot_r	clav_elev_r	scapula_abduction_r	scapula_elevation_r	scapula_upward_rot_r	scapula_winging_r	shoulder_elv_r	plane_of_elev_r	axial_rot_r	elbow_flexion_r	pro_sup_r	wrist_flex_r	wrist_dev_r	clav_prot_l	clav_elev_l	scapula_abduction_l	scapula_elevation_l	scapula_upward_rot_l	scapula_winging_l	shoulder_elv_l	plane_of_elev_l	axial_rot_l	elbow_flexion_l	pro_sup_l	wrist_flex_l	wrist_dev_l
      4.81000000	     35.83368464	     18.15954371	     23.06396557	   -262.32775020	    825.35886030	      8.34617305	     11.77535373	     36.90362105	     35.54870744	     45.00000000	    -41.69670439	   2429.72627723	  -1011.52713429	     32.85998544	     56.97112649	   1101.75700924	    113.54652884	     10.33970639	      3.84046884	      8.74917120	    -45.00000000	    -36.14859070	     45.00000000	    -45.00000000	  -2057.18278369	    268.52957862	    139.41579696	    146.52828560	    737.76034348	     90.21461853	     -1.91118286	    -13.26593388
      4.82000000	     35.84452598	     18.24194207	     23.08572110	   -261.54089351	    825.41716757	      8.25006347	     11.77781556	     36.93422921	     35.53705490	     45.00000000	    -41.59060508	   2429.73208630	  -1011.47630472	     32.92055481	     56.85501953	   1101.80356602	    114.17834150	     10.32463359	      3.84183657	      8.76661926	    -45.00000000	    -36.19072147	     45.00000000	    -45.00000000	  -2057.27382122	    268.54960818	    139.39276135	    146.67945718	    737.81464775	     90.28226389	     -1.93961252	    -13.27984815
      4.83000000	     35.75928036	     18.39983414	     23.18821801	   -260.70695144	    825.48220041	      8.15377763	     11.74922925	     36.94733489	     35.20953617	     45.00000000	    -41.36805258	   2429.88252540	  -1011.35301113	     33.07072142	     56.70719381	   1101.83163352	    114.78337654	     10.29791450	      3.84419459	      8.79540803	    -45.00000000	    -36.42147604	     45.00000000	    -45.00000000	  -2057.32021081	    268.53326846	    139.40675416	    146.84600779	    737.90827916	     90.35621201	     -1.97730848	    -13.29888406
      4.84000000	     35.72121590	     18.52008386	     23.25448082	   -259.82391055	    825.55507145	      8.05683852	     11.57825306	     36.94160541	     35.08476066	     45.00000000	    -41.11453031	   2429.93439676	  -1011.30269924	     33.06987524	     56.52731768	   1101.88394991	    115.39297227	     10.28925760	      3.83664755	      8.92584075	    -45.00000000	    -36.48062987	     45.00000000	    -45.00000000	  -2057.35740010	    268.56288549	    139.32142024	    147.05065185	    737.96973619	     90.44926747	     -2.00951902	    -13.31054297
      4.85000000	     35.76660087	     18.44625407	     23.26729393	   -258.89464512	    825.63587032	      7.95961540	     11.52949458	     36.97850510	     35.66920366	     45.00000000	    -41.03070360	   2429.72536035	  -1011.51876778	     32.87587899	     56.40779017	   1102.09213020	    116.11777988	     10.28101400	      3.80501715	      8.94414335	    -45.00000000	    -36.24054341	     45.00000000	    -45.00000000	  -2057.40712615	    268.65656396	    139.15731062	    147.28400348	    737.86869385	     90.59937298	     -2.00540276	    -13.30612521
      4.86000000	     35.68346978	     18.64012923	     23.36960892	   -257.91311716	    825.72426122	      7.86185872	     11.52893569	     37.02568591	     35.39345089	     45.00000000	    -40.87603961	   2430.02427772	  -1011.28498729	     32.86117111	     56.28909323	   1102.15341870	    116.77430444	     10.24901042	      3.77001119	      8.91625340	    -45.00000000	    -36.65033623	     45.00000000	    -45.00000000	  -2057.46943707	    268.53601049	    139.22966592	    147.44347526	    738.00974528	     90.71926588	     -2.06045769	    -13.35434340
      4.87000000	     35.71919042	     18.65585142	     23.49245949	   -256.87902265	    825.81814790	      7.76419347	     11.53072959	     37.04242575	     35.75798958	     45.00000000	    -40.72338774	   2429.70624704	  -1011.51563392	     32.90925724	     56.11007962	   1102.25464689	    117.54128321	     10.23888664	      3.76048681	      8.95709239	    -45.00000000	    -36.26411059	     45.00000000	    -45.00000000	  -2057.51164041	    268.65611854	    139.06505606	    147.73273529	    737.97817816	     90.90341711	     -2.07401863	    -13.33762465
      4.88000000	     35.72279430	     18.68776013	     23.47206637	   -255.78746003	    825.91381528	      7.66693908	     11.62374127	     37.08429538	     35.85174025	     45.00000000	    -40.57429372	   2429.63658292	  -1011.61995877	     33.00854201	     56.01440322	   1102.29139140	    118.37789566	     10.22269646	      3.75169012	      8.91448998	    -45.00000000	    -36.15124679	     45.00000000	    -45.00000000	  -2057.63613178	    268.77928731	    138.89023683	    147.96229670	    738.05642797	     91.11411752	     -2.11384387	    -13.34538316
      4.89000000	     35.75179808	     18.69814696	     23.51473478	   -254.63477303	    826.00616902	      7.57040740	     11.67911953	     37.12391317	     35.97185833	     45.00000000	    -40.41320927	   2429.51920181	  -1011.67522020	     33.15472300	     55.93217312	   1102.34294790	    119.26873606	     10.20585344	      3.73454529	      8.89039388	    -45.00000000	    -36.09167088	     45.00000000	    -45.00000000	  -2057.73350161	    268.80308073	    138.83406199	    148.18848588	    738.10560098	     91.36183388	     -2.15113542	    -13.36829016
      4.90000000	     35.73295840	     18.79303954	     23.61604524	   -253.41525156	    826.08875648	      7.47443547	     11.68860434	     37.17652212	     36.02157813	     45.00000000	    -40.19905036	   2429.51148253	  -1011.71202368	     33.21472150	     55.86009823	   1102.40374344	    120.16859545	     10.18571081	      3.70688741	      8.87313470	    -45.00000000	    -36.11299336	     45.00000000	    -45.00000000	  -2057.82291772	    268.82492195	    138.78183731	    148.42713363	    738.19840361	     91.63044988	     -2.19591197	    -13.37946115
